<svg width="92" height="127" viewBox="0 0 92 127" fill="none" xmlns="http://www.w3.org/2000/svg">
<path d="M38.6875 32.75V80.0469C38.6875 81.6406 38.4375 83.1406 37.9375 84.5469C37.4688 85.9219 36.7969 87.1094 35.9219 88.1094C35.0469 89.1094 33.9844 89.9062 32.7344 90.5C31.4844 91.0625 30.1094 91.3438 28.6094 91.3438C26.7344 91.3438 25.1406 91.0938 23.8281 90.5938C22.5156 90.0938 21.4531 89.3281 20.6406 88.2969C20.0156 87.4531 19.5469 86.4219 19.2344 85.2031C18.9219 83.9844 18.7656 82.5625 18.7656 80.9375H5.54688C5.57812 84.4688 6.15625 87.5469 7.28125 90.1719C8.40625 92.7969 9.98438 94.9688 12.0156 96.6875C14.0156 98.4375 16.4219 99.75 19.2344 100.625C22.0469 101.5 25.1719 101.938 28.6094 101.938C31.8594 101.938 34.8906 101.406 37.7031 100.344C40.5469 99.2812 43.0156 97.7812 45.1094 95.8438C47.2031 93.9062 48.8438 91.6094 50.0312 88.9531C51.25 86.2656 51.875 83.2969 51.9062 80.0469L51.8594 32.75H38.6875ZM63.2969 75.5L76.1406 101H90.25V100.391L75.5781 72.2188C77.4531 71.375 79.1406 70.375 80.6406 69.2188C82.1719 68.0625 83.4844 66.7031 84.5781 65.1406C85.6406 63.6094 86.4531 61.875 87.0156 59.9375C87.6094 57.9688 87.9062 55.7656 87.9062 53.3281C87.9062 49.9531 87.3125 46.9844 86.125 44.4219C84.9688 41.8594 83.3125 39.7188 81.1562 38C78.9688 36.2812 76.3438 34.9844 73.2812 34.1094C70.2188 33.2031 66.7969 32.75 63.0156 32.75H40.1406V101H53.3125V75.5H63.2969ZM53.3125 64.8125V43.4375H63.0156C64.8281 43.4375 66.4375 43.6562 67.8438 44.0938C69.25 44.5312 70.4375 45.1562 71.4062 45.9688C72.5 46.875 73.3125 48.0312 73.8438 49.4375C74.4062 50.8125 74.6875 52.4062 74.6875 54.2188C74.6875 55.7188 74.4688 57.0781 74.0312 58.2969C73.625 59.5156 73.0156 60.5625 72.2031 61.4375C71.2344 62.5312 69.9688 63.375 68.4062 63.9688C66.875 64.5312 65.0938 64.8125 63.0625 64.8125H53.3125Z" fill="#FF6000"/>
<circle cx="46" cy="113" r="6" fill="#FF6000"/>
</svg>
